<svg xmlns="http://www.w3.org/2000/svg" width="48" height="64" viewBox="0 0 48 64">
  <g id="ch-chview-bk" transform="translate(22787 15474)">
    <g id="그룹_101" data-name="그룹 101" transform="translate(474 -140)">
      <path id="패스_669" data-name="패스 669" d="M93.538,154.7a9.53,9.53,0,1,1-9.545-9.445A9.477,9.477,0,0,1,93.538,154.7Z" transform="translate(-23321 -15467.798)" fill="#1a1a1a"/>
      <path id="패스_670" data-name="패스 670" d="M60,143.364l.607-.5,4.78,4.783-3.672-5.667.607-.5,4.325,6.717-.956.793Z" transform="translate(-23321 -15467.798)" fill="#1a1a1a"/>
      <path id="패스_671" data-name="패스 671" d="M73.9,134.011l.85-.213.273,1.081-.85.214-.258-1.067Zm.516,2.041.819-.2,1.851,7.343-.8.213L74.4,136.052Z" transform="translate(-23321 -15467.798)" fill="#1a1a1a"/>
      <path id="패스_672" data-name="패스 672" d="M89.546,140.44l.82.137-.182,1.112c-.2,1.173-.91,1.4-1.609,1.279-.713-.122-1.32-.533-1.123-1.736l.82-5c.2-1.188.91-1.4,1.609-1.279s1.29.548,1.108,1.721l-.44,2.727-1.9-.32-.379,2.254c-.091.594.076.838.41.9s.577-.122.668-.7l.182-1.1Zm.637-3.885c.106-.579-.091-.838-.41-.883-.334-.046-.577.137-.668.7l-.319,1.9,1.093.183Z" transform="translate(-23321 -15467.798)" fill="#1a1a1a"/>
      <path id="패스_673" data-name="패스 673" d="M104.07,140.272l.576.457-3.657,5.667h.03l4.568-4.951.88.7-3.7,5.621h.03l4.613-4.89.592.457-5.509,5.773-.895-.716,3.809-5.758-.03-.03-4.674,5.1-.88-.7,4.264-6.748Z" transform="translate(-23321 -15467.798)" fill="#1a1a1a"/>
      <path id="패스_674" data-name="패스 674" d="M83.992,164.8h.137l.956-.031a25.64,25.64,0,0,0,14.857-5.59l.046-.031s.03,0,.076-.061a5.562,5.562,0,0,0,2.276-4.372,5.665,5.665,0,0,0-2.276-4.4,25.737,25.737,0,0,0-14.978-5.7s-1.032-.031-1.077-.031l-1.047.031a25.787,25.787,0,0,0-15.008,5.7,5.658,5.658,0,0,0-2.292,4.4,5.513,5.513,0,0,0,2.292,4.372l.076.061.046.031a25.777,25.777,0,0,0,14.9,5.59l.926.031h.121m-.152-3.016a28.332,28.332,0,0,1-15.327-4.494l-.061-.046-.03-.03a2.762,2.762,0,0,1,0-5.073c4.234-2.834,9.712-2.346,15.539-2.407,5.858.061,11.306-.442,15.539,2.407a3.209,3.209,0,0,1,1.669,2.544,3.147,3.147,0,0,1-1.654,2.529l-.061.03-.03.046a28.332,28.332,0,0,1-15.327,4.494Z" transform="translate(-23321 -15467.798)" fill="#1a1a1a"/>
    </g>
    <g id="그룹_110" data-name="그룹 110" transform="translate(474 -107)">
      <path id="패스_669-2" data-name="패스 669" d="M93.538,154.7a9.53,9.53,0,1,1-9.545-9.445A9.477,9.477,0,0,1,93.538,154.7Z" transform="translate(-23321 -15467.798)" fill="#1e1e6e"/>
      <path id="패스_670-2" data-name="패스 670" d="M60,143.364l.607-.5,4.78,4.783-3.672-5.667.607-.5,4.325,6.717-.956.793Z" transform="translate(-23321 -15467.798)" fill="#1e1e6e"/>
      <path id="패스_671-2" data-name="패스 671" d="M73.9,134.011l.85-.213.273,1.081-.85.214-.258-1.067Zm.516,2.041.819-.2,1.851,7.343-.8.213L74.4,136.052Z" transform="translate(-23321 -15467.798)" fill="#1e1e6e"/>
      <path id="패스_672-2" data-name="패스 672" d="M89.546,140.44l.82.137-.182,1.112c-.2,1.173-.91,1.4-1.609,1.279-.713-.122-1.32-.533-1.123-1.736l.82-5c.2-1.188.91-1.4,1.609-1.279s1.29.548,1.108,1.721l-.44,2.727-1.9-.32-.379,2.254c-.091.594.076.838.41.9s.577-.122.668-.7l.182-1.1Zm.637-3.885c.106-.579-.091-.838-.41-.883-.334-.046-.577.137-.668.7l-.319,1.9,1.093.183Z" transform="translate(-23321 -15467.798)" fill="#1e1e6e"/>
      <path id="패스_673-2" data-name="패스 673" d="M104.07,140.272l.576.457-3.657,5.667h.03l4.568-4.951.88.7-3.7,5.621h.03l4.613-4.89.592.457-5.509,5.773-.895-.716,3.809-5.758-.03-.03-4.674,5.1-.88-.7,4.264-6.748Z" transform="translate(-23321 -15467.798)" fill="#1e1e6e"/>
      <path id="패스_674-2" data-name="패스 674" d="M83.992,164.8h.137l.956-.031a25.64,25.64,0,0,0,14.857-5.59l.046-.031s.03,0,.076-.061a5.562,5.562,0,0,0,2.276-4.372,5.665,5.665,0,0,0-2.276-4.4,25.737,25.737,0,0,0-14.978-5.7s-1.032-.031-1.077-.031l-1.047.031a25.787,25.787,0,0,0-15.008,5.7,5.658,5.658,0,0,0-2.292,4.4,5.513,5.513,0,0,0,2.292,4.372l.076.061.046.031a25.777,25.777,0,0,0,14.9,5.59l.926.031h.121m-.152-3.016a28.332,28.332,0,0,1-15.327-4.494l-.061-.046-.03-.03a2.762,2.762,0,0,1,0-5.073c4.234-2.834,9.712-2.346,15.539-2.407,5.858.061,11.306-.442,15.539,2.407a3.209,3.209,0,0,1,1.669,2.544,3.147,3.147,0,0,1-1.654,2.529l-.061.03-.03.046a28.332,28.332,0,0,1-15.327,4.494Z" transform="translate(-23321 -15467.798)" fill="#1e1e6e"/>
    </g>
  </g>
</svg>
