<svg xmlns="http://www.w3.org/2000/svg" width="48.48" height="58.408" viewBox="0 0 48.48 58.408">
  <g id="ch-cinef-bk" transform="translate(22287 15460)">
    <g id="그룹_107" data-name="그룹 107" transform="translate(974 -383)">
      <path id="패스_712" data-name="패스 712" d="M107.923,422.371a1.937,1.937,0,0,0-.428-.889,1.911,1.911,0,0,0-.728-.506,2.669,2.669,0,0,0-.882-.178h-.143a3.2,3.2,0,0,0-.805.1,5.581,5.581,0,0,0-2.636,1.45,11.54,11.54,0,0,0-1.948,2.53,20,20,0,0,0-1.4,2.982c-.3.793-.441,1.272-.6,1.806-.039.109-.078.246-.117.369H96.173l-.273.944h2.012c-.182.533-1.909,6.141-2.051,6.606-.364,1.177-.753,2.353-1.169,3.5a20.5,20.5,0,0,1-1.428,3.119,11.019,11.019,0,0,1-1.779,2.366,4.3,4.3,0,0,1-3.025,1.327,1.845,1.845,0,0,1-1.078-.3,2.738,2.738,0,0,1-.675-3.3,2.226,2.226,0,0,1,1.363-1.04l.208-.055-.052-.219-.039-.177-.039-.192h-.208a2.7,2.7,0,0,0-.454.041c-.169.028-.364.055-.571.11a4.015,4.015,0,0,0-1.155.465,3.656,3.656,0,0,0-.948.793,3.314,3.314,0,0,0-.584,1.081,2.679,2.679,0,0,0-.039,1.326,2.635,2.635,0,0,0,.753,1.45,3.44,3.44,0,0,0,1.259.725,4.9,4.9,0,0,0,1.35.192h.13a6.808,6.808,0,0,0,1.441-.164,9.135,9.135,0,0,0,3.389-1.491,11.737,11.737,0,0,0,2.506-2.5,17.543,17.543,0,0,0,1.831-3.2c.506-1.149.961-2.353,1.363-3.557s1.727-5.881,2.065-6.894h5.466l.311-.943h-5.466c.091-.274.182-.589.286-.944.156-.52.324-1.108.532-1.724s.429-1.258.675-1.9.533-1.245.818-1.792a6.638,6.638,0,0,1,.909-1.354,1.805,1.805,0,0,1,.922-.629c.052,0,.117-.014.169-.014a.609.609,0,0,1,.389.15,1.469,1.469,0,0,1,.377.794,3.24,3.24,0,0,1,.065.93,5.055,5.055,0,0,1-.143.889l-.078.3h.3a2.027,2.027,0,0,0,.441-.055,2.466,2.466,0,0,0,1.337-.766,1.68,1.68,0,0,0,.364-1.559Z" transform="matrix(0.999, 0.035, -0.035, 0.999, -23305.768, -15470.886)" fill="#ec008c"/>
      <path id="패스_713" data-name="패스 713" d="M67.076,432.329a2.33,2.33,0,0,0-1.9-.862c-1.662,0-2.9,1.423-2.9,3.392s1.221,3.379,2.818,3.379a2.372,2.372,0,0,0,2.064-1.122L69,438.553a4.3,4.3,0,0,1-3.609,1.833,5.528,5.528,0,0,1,0-11.053,4.153,4.153,0,0,1,3.363,1.546l-1.688,1.45Z" transform="translate(-23321 -15467.798)" fill="#ec008c"/>
      <path id="패스_714" data-name="패스 714" d="M70.179,429.607h2.194v10.519H70.179Z" transform="translate(-23321 -15467.798)" fill="#ec008c"/>
      <path id="패스_715" data-name="패스 715" d="M74.386,429.607h2.986l4.246,7.3h.026v-7.3h2.207v10.519H80.969l-4.363-7.483H76.58v7.483H74.386Z" transform="translate(-23321 -15467.798)" fill="#ec008c"/>
      <path id="패스_716" data-name="패스 716" d="M85.954,429.607h6.778v2.134H88.149V433.7h4.324v2.134H88.149v2.133h4.843V440.1H85.954V429.607Z" transform="translate(-23321 -15467.798)" fill="#ec008c"/>
    </g>
    <g id="그룹_116" data-name="그룹 116" transform="translate(974 -413)">
      <path id="패스_712-2" data-name="패스 712" d="M107.923,422.371a1.937,1.937,0,0,0-.428-.889,1.911,1.911,0,0,0-.728-.506,2.669,2.669,0,0,0-.882-.178h-.143a3.2,3.2,0,0,0-.805.1,5.581,5.581,0,0,0-2.636,1.45,11.54,11.54,0,0,0-1.948,2.53,20,20,0,0,0-1.4,2.982c-.3.793-.441,1.272-.6,1.806-.039.109-.078.246-.117.369H96.173l-.273.944h2.012c-.182.533-1.909,6.141-2.051,6.606-.364,1.177-.753,2.353-1.169,3.5a20.5,20.5,0,0,1-1.428,3.119,11.019,11.019,0,0,1-1.779,2.366,4.3,4.3,0,0,1-3.025,1.327,1.845,1.845,0,0,1-1.078-.3,2.738,2.738,0,0,1-.675-3.3,2.226,2.226,0,0,1,1.363-1.04l.208-.055-.052-.219-.039-.177-.039-.192h-.208a2.7,2.7,0,0,0-.454.041c-.169.028-.364.055-.571.11a4.015,4.015,0,0,0-1.155.465,3.656,3.656,0,0,0-.948.793,3.314,3.314,0,0,0-.584,1.081,2.679,2.679,0,0,0-.039,1.326,2.635,2.635,0,0,0,.753,1.45,3.44,3.44,0,0,0,1.259.725,4.9,4.9,0,0,0,1.35.192h.13a6.808,6.808,0,0,0,1.441-.164,9.135,9.135,0,0,0,3.389-1.491,11.737,11.737,0,0,0,2.506-2.5,17.543,17.543,0,0,0,1.831-3.2c.506-1.149.961-2.353,1.363-3.557s1.727-5.881,2.065-6.894h5.466l.311-.943h-5.466c.091-.274.182-.589.286-.944.156-.52.324-1.108.532-1.724s.429-1.258.675-1.9.533-1.245.818-1.792a6.638,6.638,0,0,1,.909-1.354,1.805,1.805,0,0,1,.922-.629c.052,0,.117-.014.169-.014a.609.609,0,0,1,.389.15,1.469,1.469,0,0,1,.377.794,3.24,3.24,0,0,1,.065.93,5.055,5.055,0,0,1-.143.889l-.078.3h.3a2.027,2.027,0,0,0,.441-.055,2.466,2.466,0,0,0,1.337-.766,1.68,1.68,0,0,0,.364-1.559Z" transform="translate(-23321 -15467.798)" fill="#1a1a1a"/>
      <path id="패스_713-2" data-name="패스 713" d="M67.076,432.329a2.33,2.33,0,0,0-1.9-.862c-1.662,0-2.9,1.423-2.9,3.392s1.221,3.379,2.818,3.379a2.372,2.372,0,0,0,2.064-1.122L69,438.553a4.3,4.3,0,0,1-3.609,1.833,5.528,5.528,0,0,1,0-11.053,4.153,4.153,0,0,1,3.363,1.546l-1.688,1.45Z" transform="translate(-23321 -15467.798)" fill="#1a1a1a"/>
      <path id="패스_714-2" data-name="패스 714" d="M70.179,429.607h2.194v10.519H70.179Z" transform="translate(-23321 -15467.798)" fill="#1a1a1a"/>
      <path id="패스_715-2" data-name="패스 715" d="M74.386,429.607h2.986l4.246,7.3h.026v-7.3h2.207v10.519H80.969l-4.363-7.483H76.58v7.483H74.386Z" transform="translate(-23321 -15467.798)" fill="#1a1a1a"/>
      <path id="패스_716-2" data-name="패스 716" d="M85.954,429.607h6.778v2.134H88.149V433.7h4.324v2.134H88.149v2.133h4.843V440.1H85.954V429.607Z" transform="translate(-23321 -15467.798)" fill="#1a1a1a"/>
    </g>
  </g>
</svg>
