<svg xmlns="http://www.w3.org/2000/svg" xmlns:xlink="http://www.w3.org/1999/xlink" width="27" height="72" viewBox="0 0 27 72">
  <defs>
    <clipPath id="clip-path">
      <rect id="사각형_268" data-name="사각형 268" width="27" height="35" transform="translate(-23672 -15567)" fill="#fff" stroke="#707070" stroke-width="1"/>
    </clipPath>
    <clipPath id="clip-path-2">
      <rect id="사각형_269" data-name="사각형 269" width="27" height="35" transform="translate(-23672 -15476)" fill="#fff" stroke="#707070" stroke-width="1"/>
    </clipPath>
  </defs>
  <g id="ch-echannel-bk" transform="translate(23672 15567)">
    <g id="마스크_그룹_71" data-name="마스크 그룹 71" clip-path="url(#clip-path)">
      <g id="그룹_99" data-name="그룹 99" transform="translate(-421.001 -119.515)">
        <path id="패스_660" data-name="패스 660" d="M76.882,28.68a.1.1,0,0,0,.024-.01.082.082,0,0,0,.022-.015,2.63,2.63,0,0,0,1.412-3.024L77.22,22.91a3.354,3.354,0,0,0-4.539-1.166c-.005,0-.01.008-.015.008a.057.057,0,0,1-.016.009,3.155,3.155,0,0,0-.98.8,2.98,2.98,0,0,0-.569,1.1,2.892,2.892,0,0,0-.064,1.225,2.945,2.945,0,0,0,.45,1.149l1.906,2.292a2.958,2.958,0,0,0,3.488.356" transform="translate(-23321 -15467.798)" fill="#1a1a1a"/>
        <path id="패스_661" data-name="패스 661" d="M92.492,48.279H81.207v-3.3H92.5a4.325,4.325,0,0,0,1.623-.2A4.181,4.181,0,0,0,95.541,44a2.948,2.948,0,0,0,0-4.2,4.178,4.178,0,0,0-1.413-.781,4.322,4.322,0,0,0-1.621-.2h-11.3v-3.3H92.492c3.563-.008,3.948-2.164,3.948-3.091,0-1.869-1.537-3.079-3.915-3.082H81.675A7.518,7.518,0,0,0,76.1,31.5c-1.926,1.983-2.9,5.375-2.9,10.081,0,8.809,2.616,12.78,8.482,12.872H92.523c2.378,0,3.915-1.214,3.915-3.085,0-.927-.385-3.078-3.948-3.091" transform="translate(-23321 -15467.798)" fill="#1a1a1a"/>
      </g>
    </g>
    <g id="마스크_그룹_72" data-name="마스크 그룹 72" transform="translate(0 -54)" clip-path="url(#clip-path-2)">
      <g id="그룹_109" data-name="그룹 109" transform="translate(-421.001 -28.514)">
        <path id="패스_660-2" data-name="패스 660" d="M76.882,28.68a.1.1,0,0,0,.024-.01.082.082,0,0,0,.022-.015,2.63,2.63,0,0,0,1.412-3.024L77.22,22.91a3.354,3.354,0,0,0-4.539-1.166c-.005,0-.01.008-.015.008a.057.057,0,0,1-.016.009,3.155,3.155,0,0,0-.98.8,2.98,2.98,0,0,0-.569,1.1,2.892,2.892,0,0,0-.064,1.225,2.945,2.945,0,0,0,.45,1.149l1.906,2.292a2.958,2.958,0,0,0,3.488.356" transform="translate(-23321 -15467.798)" fill="#f6a40e"/>
        <path id="패스_661-2" data-name="패스 661" d="M92.492,48.279H81.207v-3.3H92.5a4.325,4.325,0,0,0,1.623-.2A4.181,4.181,0,0,0,95.541,44a2.948,2.948,0,0,0,0-4.2,4.178,4.178,0,0,0-1.413-.781,4.322,4.322,0,0,0-1.621-.2h-11.3v-3.3H92.492c3.563-.008,3.948-2.164,3.948-3.091,0-1.869-1.537-3.079-3.915-3.082H81.675A7.518,7.518,0,0,0,76.1,31.5c-1.926,1.983-2.9,5.375-2.9,10.081,0,8.809,2.616,12.78,8.482,12.872H92.523c2.378,0,3.915-1.214,3.915-3.085,0-.927-.385-3.078-3.948-3.091" transform="translate(-23321 -15467.798)" fill="#e2151e"/>
      </g>
    </g>
  </g>
</svg>
