<svg xmlns="http://www.w3.org/2000/svg" width="62" height="32" viewBox="0 0 62 32">
  <g id="ch-ever-bk" transform="translate(22465 15462)">
    <g id="그룹_105" data-name="그룹 105" transform="translate(803 -319)">
      <path id="패스_697" data-name="패스 697" d="M71.045,324.8c-4.036,0-6.864,3.39-6.864,7.5v.061a7.07,7.07,0,0,0,7.247,7.436,6.843,6.843,0,0,0,5.671-2.687l-2.254-2.062a4.452,4.452,0,0,1-3.359,1.481,3.232,3.232,0,0,1-3.388-2.824h9.663c.029-.382.059-.748.059-1.069C77.791,328.545,75.67,324.8,71.045,324.8Zm-3.005,6.337c.309-1.848,1.37-3.054,3.005-3.054s2.7,1.237,2.931,3.054Z" transform="translate(-23321 -15467.798)" fill="#1a1a1a"/>
      <path id="패스_698" data-name="패스 698" d="M98.3,324.8c-4.036,0-6.864,3.374-6.864,7.482v.061a7.07,7.07,0,0,0,7.247,7.436,6.843,6.843,0,0,0,5.672-2.688l-2.254-2.061a4.453,4.453,0,0,1-3.359,1.481,3.232,3.232,0,0,1-3.388-2.825h9.663c.03-.381.059-.748.059-1.068C105.057,328.545,102.935,324.8,98.3,324.8Zm-3.005,6.337c.309-1.848,1.37-3.054,3.005-3.054s2.7,1.237,2.932,3.054Z" transform="translate(-23321 -15467.798)" fill="#1a1a1a"/>
      <path id="패스_699" data-name="패스 699" d="M110.581,327.98v-2.9H105.9v.718s.707.061.751,1.71v9.543c-.044,1.649-.751,1.71-.751,1.71v.717h4.08a.609.609,0,0,0,.6-.626v-4.687c0-3.436,1.606-5.069,4.213-5.069H115V324.8c-2.327-.107-3.623,1.176-4.434,3.161Z" transform="translate(-23321 -15467.798)" fill="#1a1a1a"/>
      <path id="패스_700" data-name="패스 700" d="M92.345,325.8v-.717h-4.1a.665.665,0,0,0-.633.473l-2.976,9.161L81.7,325.567a.683.683,0,0,0-.648-.488H76.893v.717s.678-.213,1.4,1.7l4.552,12.078h3.579l4.611-12.246c.692-1.725,1.326-1.527,1.326-1.527Z" transform="translate(-23321 -15467.798)" fill="#1a1a1a"/>
      <path id="패스_701" data-name="패스 701" d="M56.933,328.56a1.143,1.143,0,0,1-1.208.87c-.854,0-1.355-.58-1.355-1.587s.486-1.588,1.326-1.588a1.215,1.215,0,0,1,1.237.855l.029.106,1.267-.519-.03-.091a2.533,2.533,0,0,0-2.5-1.71,2.966,2.966,0,0,0,.03,5.909,2.485,2.485,0,0,0,2.489-1.741l.029-.092-1.282-.5-.029.106Z" transform="translate(-23321 -15467.798)" fill="#1a1a1a"/>
      <path id="패스_702" data-name="패스 702" d="M61.794,325.064v2.046H59.967v-2.046H58.6v5.6h1.37v-2.229h1.827v2.229h1.37v-5.6Z" transform="translate(-23321 -15467.798)" fill="#1a1a1a"/>
    </g>
    <g id="그룹_114" data-name="그룹 114" transform="translate(803 -302)">
      <path id="패스_697-2" data-name="패스 697" d="M71.045,324.8c-4.036,0-6.864,3.39-6.864,7.5v.061a7.07,7.07,0,0,0,7.247,7.436,6.843,6.843,0,0,0,5.671-2.687l-2.254-2.062a4.452,4.452,0,0,1-3.359,1.481,3.232,3.232,0,0,1-3.388-2.824h9.663c.029-.382.059-.748.059-1.069C77.791,328.545,75.67,324.8,71.045,324.8Zm-3.005,6.337c.309-1.848,1.37-3.054,3.005-3.054s2.7,1.237,2.931,3.054Z" transform="translate(-23321 -15467.798)" fill="#c7101a"/>
      <path id="패스_698-2" data-name="패스 698" d="M98.3,324.8c-4.036,0-6.864,3.374-6.864,7.482v.061a7.07,7.07,0,0,0,7.247,7.436,6.843,6.843,0,0,0,5.672-2.688l-2.254-2.061a4.453,4.453,0,0,1-3.359,1.481,3.232,3.232,0,0,1-3.388-2.825h9.663c.03-.381.059-.748.059-1.068C105.057,328.545,102.935,324.8,98.3,324.8Zm-3.005,6.337c.309-1.848,1.37-3.054,3.005-3.054s2.7,1.237,2.932,3.054Z" transform="translate(-23321 -15467.798)" fill="#c7101a"/>
      <path id="패스_699-2" data-name="패스 699" d="M110.581,327.98v-2.9H105.9v.718s.707.061.751,1.71v9.543c-.044,1.649-.751,1.71-.751,1.71v.717h4.08a.609.609,0,0,0,.6-.626v-4.687c0-3.436,1.606-5.069,4.213-5.069H115V324.8c-2.327-.107-3.623,1.176-4.434,3.161Z" transform="translate(-23321 -15467.798)" fill="#c7101a"/>
      <path id="패스_700-2" data-name="패스 700" d="M92.345,325.8v-.717h-4.1a.665.665,0,0,0-.633.473l-2.976,9.161L81.7,325.567a.683.683,0,0,0-.648-.488H76.893v.717s.678-.213,1.4,1.7l4.552,12.078h3.579l4.611-12.246c.692-1.725,1.326-1.527,1.326-1.527Z" transform="translate(-23321 -15467.798)" fill="#c7101a"/>
      <path id="패스_701-2" data-name="패스 701" d="M56.933,328.56a1.143,1.143,0,0,1-1.208.87c-.854,0-1.355-.58-1.355-1.587s.486-1.588,1.326-1.588a1.215,1.215,0,0,1,1.237.855l.029.106,1.267-.519-.03-.091a2.533,2.533,0,0,0-2.5-1.71,2.966,2.966,0,0,0,.03,5.909,2.485,2.485,0,0,0,2.489-1.741l.029-.092-1.282-.5-.029.106Z" transform="translate(-23321 -15467.798)" fill="#c7101a"/>
      <path id="패스_702-2" data-name="패스 702" d="M61.794,325.064v2.046H59.967v-2.046H58.6v5.6h1.37v-2.229h1.827v2.229h1.37v-5.6Z" transform="translate(-23321 -15467.798)" fill="#c7101a"/>
    </g>
  </g>
</svg>
