<svg xmlns="http://www.w3.org/2000/svg" width="60" height="48" viewBox="0 0 60 48">
  <g id="ch-elkik-bk" transform="translate(22867 15465)">
    <g id="그룹_100" data-name="그룹 100" transform="translate(400 -80)">
      <path id="패스_662" data-name="패스 662" d="M86.128,93.415h3.4v12.35h-3.4Z" transform="translate(-23321 -15467.798)" fill="#1a1a1a"/>
      <path id="패스_663" data-name="패스 663" d="M87.8,88.406a1.761,1.761,0,1,1-1.794,1.772A1.809,1.809,0,0,1,87.8,88.406Z" transform="translate(-23321 -15467.798)" fill="#1a1a1a"/>
      <path id="패스_664" data-name="패스 664" d="M90.709,88.409h3.4v9.738h.183l4.691-5.435h3.907l-5.258,6.11,4.863,6.945h-4l-3.1-4.4-1.287,1.457v2.945h-3.4V88.409Z" transform="translate(-23321 -15467.798)" fill="#1a1a1a"/>
      <path id="패스_665" data-name="패스 665" d="M78.369,99.849V88.409H74.654V99.788a6.01,6.01,0,0,0,6.041,5.979H85v-3.678H80.632a2.252,2.252,0,0,1-2.264-2.24Z" transform="translate(-23321 -15467.798)" fill="#1a1a1a"/>
      <path id="패스_666" data-name="패스 666" d="M57.924,87.9l.016-.006c0-.006.011-.006.015-.011a1.85,1.85,0,0,0,.94-2.1L58.149,83.9a2.189,2.189,0,0,0-3.024-.808.016.016,0,0,1-.011.006.019.019,0,0,1-.011.006,2.093,2.093,0,0,0-.772,2.961L55.6,87.657a1.915,1.915,0,0,0,2.322.247Z" transform="translate(-23321 -15467.798)" fill="#1a1a1a"/>
      <path id="패스_667" data-name="패스 667" d="M68.315,101.486H60.8V99.2h7.521a2.769,2.769,0,0,0,2.023-.679,2.1,2.1,0,0,0,0-2.909,2.763,2.763,0,0,0-2.02-.677H60.8V92.646h7.513c2.372-.006,2.627-1.5,2.627-2.143,0-1.3-1.023-2.134-2.607-2.135H61.114A4.895,4.895,0,0,0,57.4,89.861c-1.282,1.376-1.932,3.726-1.932,6.988,0,6.1,1.741,8.856,5.648,8.92h7.22c1.583,0,2.607-.842,2.607-2.139,0-.64-.256-2.134-2.629-2.143Z" transform="translate(-23321 -15467.798)" fill="#1a1a1a"/>
      <path id="패스_668" data-name="패스 668" d="M113.689,101.91a1.588,1.588,0,0,0-2.185-.221,5.048,5.048,0,0,1-4.542,1.009,2.57,2.57,0,0,1-.6-.205,4.369,4.369,0,0,1-1.452-1.11c1.193,0,4.4-.2,6.552-2.337a5.088,5.088,0,0,0,1.589-4.349,2.407,2.407,0,0,0-.2-.615c-.367-.778-1.532-2.511-4.543-2.2a7.95,7.95,0,0,0-5.676,3.727,1.786,1.786,0,0,0-.515-.076,1.657,1.657,0,0,0-1.7,1.615,1.621,1.621,0,0,0,1.108,1.515,6.3,6.3,0,0,0,2.569,6.076,8.557,8.557,0,0,0,9.4-.848,1.511,1.511,0,0,0,.185-1.974Zm-4.54-7.108s1.171-.1.94.825a3.793,3.793,0,0,1-2.131,2.227,7.692,7.692,0,0,1-3.45.517c.047-.13.1-.262.166-.4C104.674,97.974,106.192,94.894,109.149,94.8Z" transform="translate(-23321 -15467.798)" fill="#1a1a1a"/>
    </g>
    <g id="그룹_124" data-name="그룹 124">
      <path id="패스_662-2" data-name="패스 662" d="M86.128,93.415h3.4v12.35h-3.4Z" transform="translate(-22921 -15522.798)" fill="#97999a"/>
      <path id="패스_663-2" data-name="패스 663" d="M87.8,88.406a1.761,1.761,0,1,1-1.794,1.772A1.809,1.809,0,0,1,87.8,88.406Z" transform="translate(-22921 -15522.798)" fill="#97999a"/>
      <path id="패스_664-2" data-name="패스 664" d="M90.709,88.409h3.4v9.738h.183l4.691-5.435h3.907l-5.258,6.11,4.863,6.945h-4l-3.1-4.4-1.287,1.457v2.945h-3.4V88.409Z" transform="translate(-22921 -15522.798)" fill="#97999a"/>
      <path id="패스_665-2" data-name="패스 665" d="M78.369,99.849V88.409H74.654V99.788a6.01,6.01,0,0,0,6.041,5.979H85v-3.678H80.632a2.252,2.252,0,0,1-2.264-2.24Z" transform="translate(-22921 -15522.798)" fill="#97999a"/>
      <path id="패스_666-2" data-name="패스 666" d="M57.924,87.9l.016-.006c0-.006.011-.006.015-.011a1.85,1.85,0,0,0,.94-2.1L58.149,83.9a2.189,2.189,0,0,0-3.024-.808.016.016,0,0,1-.011.006.019.019,0,0,1-.011.006,2.093,2.093,0,0,0-.772,2.961L55.6,87.657a1.915,1.915,0,0,0,2.322.247Z" transform="translate(-22921 -15522.798)" fill="#f6a40e"/>
      <path id="패스_667-2" data-name="패스 667" d="M68.315,101.486H60.8V99.2h7.521a2.769,2.769,0,0,0,2.023-.679,2.1,2.1,0,0,0,0-2.909,2.763,2.763,0,0,0-2.02-.677H60.8V92.646h7.513c2.372-.006,2.627-1.5,2.627-2.143,0-1.3-1.023-2.134-2.607-2.135H61.114A4.895,4.895,0,0,0,57.4,89.861c-1.282,1.376-1.932,3.726-1.932,6.988,0,6.1,1.741,8.856,5.648,8.92h7.22c1.583,0,2.607-.842,2.607-2.139,0-.64-.256-2.134-2.629-2.143Z" transform="translate(-22921 -15522.798)" fill="#e41321"/>
      <path id="패스_668-2" data-name="패스 668" d="M113.689,101.91a1.588,1.588,0,0,0-2.185-.221,5.048,5.048,0,0,1-4.542,1.009,2.57,2.57,0,0,1-.6-.205,4.369,4.369,0,0,1-1.452-1.11c1.193,0,4.4-.2,6.552-2.337a5.088,5.088,0,0,0,1.589-4.349,2.407,2.407,0,0,0-.2-.615c-.367-.778-1.532-2.511-4.543-2.2a7.95,7.95,0,0,0-5.676,3.727,1.786,1.786,0,0,0-.515-.076,1.657,1.657,0,0,0-1.7,1.615,1.621,1.621,0,0,0,1.108,1.515,6.3,6.3,0,0,0,2.569,6.076,8.557,8.557,0,0,0,9.4-.848,1.511,1.511,0,0,0,.185-1.974Zm-4.54-7.108s1.171-.1.94.825a3.793,3.793,0,0,1-2.131,2.227,7.692,7.692,0,0,1-3.45.517c.047-.13.1-.262.166-.4C104.674,97.974,106.192,94.894,109.149,94.8Z" transform="translate(-22921 -15522.798)" fill="#97999a"/>
    </g>
  </g>
</svg>
