<svg xmlns="http://www.w3.org/2000/svg" width="40" height="38" viewBox="0 0 40 38">
  <g id="ch-mx-bk" transform="translate(22710 15465)">
    <g id="그룹_102" data-name="그룹 102" transform="translate(547 -190)">
      <path id="패스_675" data-name="패스 675" d="M79.588,195.987l-1.3,1.369-3.931,4.092h.015l-.152.155-.152.14-.152-.14-.137-.155-5.12-5.461H67.124V210.8h2.911V202.35l.655.685,3.5,3.625,3.5-3.625.594-.623V210.8h2.834V195.987Z" transform="translate(-23321 -15467.798)" fill="#1a1a1a"/>
      <path id="패스_676" data-name="패스 676" d="M96.808,192.8l-2.941,4.045L90.941,192.8H87.863l4.465,6.161,1.707,2.333,1.524-2.116,4.632-6.378Z" transform="translate(-23321 -15467.798)" fill="#1a1a1a"/>
      <path id="패스_677" data-name="패스 677" d="M92.069,199.316,87.345,192.8H78.187l-3.992,4.138L70.2,192.8H64v18h2.7V195.552H68.83l1.188,1.26,4.053,4.309,5.333-5.585h2.133v15.246h5.577l4.83-6.674,1.8-2.474L92.053,199.3Zm-7.756-5.725,5.958,8.215-5.958,8.214Z" transform="translate(-23321 -15467.798)" fill="#1a1a1a"/>
      <path id="패스_678" data-name="패스 678" d="M104,192.8h-3.276l-6.431,8.852,6.629,9.148H104l-6.537-8.992Z" transform="translate(-23321 -15467.798)" fill="#1a1a1a"/>
      <path id="패스_679" data-name="패스 679" d="M95.665,204.279l-1.631-2.256L87.65,210.8h3.291l2.926-4.03,2.941,4.03h3.6Z" transform="translate(-23321 -15467.798)" fill="#1a1a1a"/>
    </g>
    <g id="그룹_111" data-name="그룹 111" transform="translate(547 -170)">
      <path id="패스_675-2" data-name="패스 675" d="M79.588,195.987l-1.3,1.369-3.931,4.092h.015l-.152.155-.152.14-.152-.14-.137-.155-5.12-5.461H67.124V210.8h2.911V202.35l.655.685,3.5,3.625,3.5-3.625.594-.623V210.8h2.834V195.987Z" transform="translate(-23321 -15467.798)" fill="#026085"/>
      <path id="패스_676-2" data-name="패스 676" d="M96.808,192.8l-2.941,4.045L90.941,192.8H87.863l4.465,6.161,1.707,2.333,1.524-2.116,4.632-6.378Z" transform="translate(-23321 -15467.798)" fill="#026085"/>
      <path id="패스_677-2" data-name="패스 677" d="M92.069,199.316,87.345,192.8H78.187l-3.992,4.138L70.2,192.8H64v18h2.7V195.552H68.83l1.188,1.26,4.053,4.309,5.333-5.585h2.133v15.246h5.577l4.83-6.674,1.8-2.474L92.053,199.3Zm-7.756-5.725,5.958,8.215-5.958,8.214Z" transform="translate(-23321 -15467.798)" fill="#026085"/>
      <path id="패스_678-2" data-name="패스 678" d="M104,192.8h-3.276l-6.431,8.852,6.629,9.148H104l-6.537-8.992Z" transform="translate(-23321 -15467.798)" fill="#026085"/>
      <path id="패스_679-2" data-name="패스 679" d="M95.665,204.279l-1.631-2.256L87.65,210.8h3.291l2.926-4.03,2.941,4.03h3.6Z" transform="translate(-23321 -15467.798)" fill="#026085"/>
    </g>
  </g>
</svg>
