<svg xmlns="http://www.w3.org/2000/svg" xmlns:xlink="http://www.w3.org/1999/xlink" width="62" height="32" viewBox="0 0 62 32">
  <defs>
    <linearGradient id="linear-gradient" x1="0.89" y1="0.001" x2="0.12" y2="1" gradientUnits="objectBoundingBox">
      <stop offset="0.16" stop-color="#1d1d1d" stop-opacity="0"/>
      <stop offset="0.42" stop-color="#1d1d1d"/>
      <stop offset="0.89" stop-color="#1d1d1d"/>
    </linearGradient>
  </defs>
  <g id="ch-now-bk" transform="translate(22544 15463)">
    <g id="그룹_104" data-name="그룹 104" transform="translate(724 -277)">
      <path id="패스_689" data-name="패스 689" d="M53.015,285.364a2.966,2.966,0,0,1,5.14-1.82l-.8.734A1.756,1.756,0,0,0,56,283.647a1.718,1.718,0,1,0,0,3.435,1.757,1.757,0,0,0,1.359-.632l.8.734A2.977,2.977,0,0,1,53,285.364Z" transform="translate(-23321 -15467.798)" fill="#1a1a1a"/>
      <path id="패스_690" data-name="패스 690" d="M63.958,282.679v5.357H62.7v-2.2H60.251v2.2H59v-5.357h1.255v2.113H62.7v-2.113Z" transform="translate(-23321 -15467.798)" fill="#1a1a1a"/>
      <path id="패스_691" data-name="패스 691" d="M113.124,282a1.868,1.868,0,0,0-1.861,1.644c0,.074-.014.147-.014.22a1.876,1.876,0,0,0,3.648.6,1.707,1.707,0,0,0,.1-.616,1.872,1.872,0,0,0-1.876-1.864Z" transform="translate(-23321 -15467.798)" fill="#1a1a1a"/>
      <path id="패스_692" data-name="패스 692" d="M113.124,285.731a1.872,1.872,0,0,1-1.876-1.864,1.086,1.086,0,0,1,.015-.22,1.053,1.053,0,0,1,.059-.308l-1.92,5.812a.212.212,0,0,0,.03.059c.945,2.539,1.831,4.9,1.831,4.9a2.434,2.434,0,0,1,.148.719,1.55,1.55,0,0,1-.1.587l3.6-10.934a1.882,1.882,0,0,1-1.772,1.262Z" transform="translate(-23321 -15467.798)" fill="url(#linear-gradient)"/>
      <path id="패스_693" data-name="패스 693" d="M87.559,281.8a7.5,7.5,0,1,0,7.547,7.5A7.528,7.528,0,0,0,87.559,281.8Zm0,11.14a3.64,3.64,0,1,1,3.663-3.64A3.651,3.651,0,0,1,87.559,292.938Z" transform="translate(-23321 -15467.798)" fill="#1a1a1a"/>
      <path id="패스_694" data-name="패스 694" d="M74.858,289.841s-6.085-7.177-6.1-7.192a1.847,1.847,0,0,0-3.308,1.057v12.813h3.737v-7.705l6.055,7.133s.1.1.148.161a1.882,1.882,0,0,0,3.2-1.321V282.121H74.873v7.7Z" transform="translate(-23321 -15467.798)" fill="#1a1a1a"/>
      <path id="패스_695" data-name="패스 695" d="M111.264,294.1s-.887-2.363-1.832-4.9c-1.093-2.921-2.378-6.062-2.378-6.062a1.908,1.908,0,0,0-3.485-.191c-.015.03-.074.147-.089.191l-2.318,6.165L98.8,282.091H94.84l4.386,13.224a2.409,2.409,0,0,0,.428.734,1.91,1.91,0,0,0,1.418.631,1.863,1.863,0,0,0,1.521-.778,2.237,2.237,0,0,0,.295-.557l2.364-6.414s2.51,6.531,2.51,6.546a1.867,1.867,0,0,0,1.758,1.2h.059a1.893,1.893,0,0,0,1.728-1.277,1.956,1.956,0,0,0,.1-.587A2.452,2.452,0,0,0,111.264,294.1Z" transform="translate(-23321 -15467.798)" fill="#1a1a1a"/>
      <path id="패스_696" data-name="패스 696" d="M74.858,289.826s-6.1-7.177-6.114-7.192a1.847,1.847,0,0,0-3.308,1.057v12.828h3.751V288.8l6.055,7.147a2.143,2.143,0,0,1,.148.162,1.882,1.882,0,0,0,3.2-1.321V282.106H74.873v7.72Z" transform="translate(-23321 -15467.798)" fill="#1a1a1a"/>
    </g>
    <g id="그룹_113" data-name="그룹 113" transform="translate(724 -260)">
      <path id="패스_689-2" data-name="패스 689" d="M53.015,285.364a2.966,2.966,0,0,1,5.14-1.82l-.8.734A1.756,1.756,0,0,0,56,283.647a1.718,1.718,0,1,0,0,3.435,1.757,1.757,0,0,0,1.359-.632l.8.734A2.977,2.977,0,0,1,53,285.364Z" transform="translate(-23321 -15467.798)" fill="#431ec5"/>
      <path id="패스_690-2" data-name="패스 690" d="M63.958,282.679v5.357H62.7v-2.2H60.251v2.2H59v-5.357h1.255v2.113H62.7v-2.113Z" transform="translate(-23321 -15467.798)" fill="#431ec5"/>
      <path id="패스_691-2" data-name="패스 691" d="M113.124,282a1.868,1.868,0,0,0-1.861,1.644c0,.074-.014.147-.014.22a1.876,1.876,0,0,0,3.648.6,1.707,1.707,0,0,0,.1-.616,1.872,1.872,0,0,0-1.876-1.864Z" transform="translate(-23321 -15467.798)" fill="#431ec5"/>
      <path id="패스_692-2" data-name="패스 692" d="M113.124,285.731a1.872,1.872,0,0,1-1.876-1.864,1.086,1.086,0,0,1,.015-.22,1.053,1.053,0,0,1,.059-.308l-1.92,5.812a.212.212,0,0,0,.03.059c.945,2.539,1.831,4.9,1.831,4.9a2.434,2.434,0,0,1,.148.719,1.55,1.55,0,0,1-.1.587l3.6-10.934a1.882,1.882,0,0,1-1.772,1.262Z" transform="translate(-23321 -15467.798)" fill="#431ec5"/>
      <path id="패스_693-2" data-name="패스 693" d="M87.559,281.8a7.5,7.5,0,1,0,7.547,7.5A7.528,7.528,0,0,0,87.559,281.8Zm0,11.14a3.64,3.64,0,1,1,3.663-3.64A3.651,3.651,0,0,1,87.559,292.938Z" transform="translate(-23321 -15467.798)" fill="#431ec5"/>
      <path id="패스_694-2" data-name="패스 694" d="M74.858,289.841s-6.085-7.177-6.1-7.192a1.847,1.847,0,0,0-3.308,1.057v12.813h3.737v-7.705l6.055,7.133s.1.1.148.161a1.882,1.882,0,0,0,3.2-1.321V282.121H74.873v7.7Z" transform="translate(-23321 -15467.798)" fill="#431ec5"/>
      <path id="패스_695-2" data-name="패스 695" d="M111.264,294.1s-.887-2.363-1.832-4.9c-1.093-2.921-2.378-6.062-2.378-6.062a1.908,1.908,0,0,0-3.485-.191c-.015.03-.074.147-.089.191l-2.318,6.165L98.8,282.091H94.84l4.386,13.224a2.409,2.409,0,0,0,.428.734,1.91,1.91,0,0,0,1.418.631,1.863,1.863,0,0,0,1.521-.778,2.237,2.237,0,0,0,.295-.557l2.364-6.414s2.51,6.531,2.51,6.546a1.867,1.867,0,0,0,1.758,1.2h.059a1.893,1.893,0,0,0,1.728-1.277,1.956,1.956,0,0,0,.1-.587A2.452,2.452,0,0,0,111.264,294.1Z" transform="translate(-23321 -15467.798)" fill="#431ec5"/>
      <path id="패스_696-2" data-name="패스 696" d="M74.858,289.826s-6.1-7.177-6.114-7.192a1.847,1.847,0,0,0-3.308,1.057v12.828h3.751V288.8l6.055,7.147a2.143,2.143,0,0,1,.148.162,1.882,1.882,0,0,0,3.2-1.321V282.106H74.873v7.72Z" transform="translate(-23321 -15467.798)" fill="#431ec5"/>
    </g>
  </g>
</svg>
